/* XPM */
static char * labadmin_xpm[] = {
"48 48 195 2",
"  	c None",
". 	c #FFFFFF",
"+ 	c #D3D3D3",
"@ 	c #000000",
"# 	c #0D0D0D",
"$ 	c #BDBDBD",
"% 	c #C6C6C6",
"& 	c #010101",
"* 	c #0E0E0E",
"= 	c #E5E5E5",
"- 	c #9A9A9A",
"; 	c #020202",
"> 	c #1D1D1D",
", 	c #C2C2C2",
"' 	c #727272",
") 	c #030303",
"! 	c #979797",
"~ 	c #FCFCFC",
"{ 	c #D4D4D4",
"] 	c #585858",
"^ 	c #151515",
"/ 	c #EAEAEA",
"( 	c #8A8A8A",
"_ 	c #757575",
": 	c #303030",
"< 	c #888888",
"[ 	c #939393",
"} 	c #F8F8F8",
"| 	c #6C6C6C",
"1 	c #141414",
"2 	c #D5D5D5",
"3 	c #262626",
"4 	c #565656",
"5 	c #F7F7F7",
"6 	c #EDEDED",
"7 	c #CECECE",
"8 	c #BEBEBE",
"9 	c #C1C1C1",
"0 	c #DDDDDD",
"a 	c #C5C5C5",
"b 	c #EFEFEF",
"c 	c #C0C0C0",
"d 	c #D8D8D8",
"e 	c #424242",
"f 	c #4E4E4E",
"g 	c #FBFBFB",
"h 	c #6D6D6D",
"i 	c #3B3B3B",
"j 	c #333333",
"k 	c #E9E9E9",
"l 	c #7D7D7D",
"m 	c #393939",
"n 	c #DEDEDE",
"o 	c #CCCCCC",
"p 	c #0C0C0C",
"q 	c #434343",
"r 	c #E6E6E6",
"s 	c #7B7B7B",
"t 	c #F2F2F2",
"u 	c #D9D9D9",
"v 	c #444444",
"w 	c #7F7F7F",
"x 	c #4F4F4F",
"y 	c #2F2F2F",
"z 	c #626262",
"A 	c #E1E1E1",
"B 	c #212121",
"C 	c #272727",
"D 	c #E8E8E8",
"E 	c #AFAFAF",
"F 	c #373737",
"G 	c #353535",
"H 	c #DCDCDC",
"I 	c #080808",
"J 	c #A9A9A9",
"K 	c #797979",
"L 	c #D2D2D2",
"M 	c #C9C9C9",
"N 	c #777777",
"O 	c #ECECEC",
"P 	c #343434",
"Q 	c #363636",
"R 	c #131313",
"S 	c #5C5C5C",
"T 	c #858585",
"U 	c #E4E4E4",
"V 	c #454545",
"W 	c #A8A8A8",
"X 	c #FEFEFE",
"Y 	c #B9B9B9",
"Z 	c #171717",
"` 	c #515151",
" .	c #F6F6F6",
"..	c #E3E3E3",
"+.	c #AEAEAE",
"@.	c #1F1F1F",
"#.	c #474747",
"$.	c #CACACA",
"%.	c #D1D1D1",
"&.	c #9E9E9E",
"*.	c #0A0A0A",
"=.	c #C8C8C8",
"-.	c #999999",
";.	c #2C2C2C",
">.	c #B2B2B2",
",.	c #F0F0F0",
"'.	c #595959",
").	c #898989",
"!.	c #040404",
"~.	c #8E8E8E",
"{.	c #575757",
"].	c #B4B4B4",
"^.	c #636363",
"/.	c #6A6A6A",
"(.	c #CFCFCF",
"_.	c #676767",
":.	c #FDFDFD",
"<.	c #B7B7B7",
"[.	c #6F6F6F",
"}.	c #A5A5A5",
"|.	c #F9F9F9",
"1.	c #787878",
"2.	c #545454",
"3.	c #F3F3F3",
"4.	c #DBDBDB",
"5.	c #1E1E1E",
"6.	c #4A4A4A",
"7.	c #383838",
"8.	c #0F0F0F",
"9.	c #3C3C3C",
"0.	c #242424",
"a.	c #9B9B9B",
"b.	c #505050",
"c.	c #BFBFBF",
"d.	c #161616",
"e.	c #2A2A2A",
"f.	c #818181",
"g.	c #313131",
"h.	c #ABABAB",
"i.	c #696969",
"j.	c #959595",
"k.	c #8B8B8B",
"l.	c #909090",
"m.	c #202020",
"n.	c #060606",
"o.	c #A3A3A3",
"p.	c #8D8D8D",
"q.	c #5B5B5B",
"r.	c #A1A1A1",
"s.	c #090909",
"t.	c #919191",
"u.	c #555555",
"v.	c #656565",
"w.	c #CDCDCD",
"x.	c #4B4B4B",
"y.	c #525252",
"z.	c #878787",
"A.	c #DADADA",
"B.	c #1B1B1B",
"C.	c #A6A6A6",
"D.	c #F4F4F4",
"E.	c #E0E0E0",
"F.	c #2B2B2B",
"G.	c #868686",
"H.	c #1A1A1A",
"I.	c #4D4D4D",
"J.	c #FAFAFA",
"K.	c #7E7E7E",
"L.	c #484848",
"M.	c #BBBBBB",
"N.	c #BCBCBC",
"O.	c #4C4C4C",
"P.	c #F5F5F5",
"Q.	c #6E6E6E",
"R.	c #191919",
"S.	c #464646",
"T.	c #BABABA",
"U.	c #050505",
"V.	c #5F5F5F",
"W.	c #969696",
"X.	c #111111",
"Y.	c #646464",
"Z.	c #8F8F8F",
"`.	c #808080",
" +	c #3E3E3E",
".+	c #101010",
"++	c #B5B5B5",
"@+	c #404040",
"#+	c #B0B0B0",
"$+	c #252525",
"%+	c #8C8C8C",
"&+	c #181818",
"*+	c #222222",
"=+	c #F1F1F1",
"-+	c #535353",
". . . . . . . . . . . . . . . . . . . . . . . . . . . . . . . . . . . . . . . . . . . . . . . . ",
". . . . . . . . . . . . . . . . . . . . . . . . . . . . . . . . . . . . . . . . . . . . . . . . ",
". . . . . . . . . . . . . . . . . . . . . . . . . . . . . . . . . . . . . . . . . . . . . . . . ",
". . . . . . . . . . . . . . . . . . . . . . . . . . . . . . . . . . . . . . . . . . . . . . . . ",
". . . . . . . . . . . . . . . . . . . . . . . . . . . . . . . . . . . . . . . . . . . . . . . . ",
". . . . . . . . . . . . . . . . . . . . . . . . . . . . + @ @ # $ . . . . . . . . . . . . . . . ",
". . . . . % @ @ & & @ * = . . . . . . . . . . . . . . . - ; @ > , . . . . . . . . . . . . . . . ",
". . . . . ' @ & @ @ & ) ! . . . . . . . . . . . . . . . ~ { ] ^ , . . . . . . . . . . . . . . . ",
". . . . . / ( _ ^ : < [ } . . . . . . . . . . . . . . . . . | 1 , . . . . . . . . . . . . . . . ",
". . . . . . . 2 3 4 5 . . . . . . . . . 6 7 8 9 0 . . . . . | 1 a b a c d . . . . . . . . . . . ",
". . . . . . . 2 3 4 5 . . . . . . . 6 e @ @ @ @ @ f g . . . h # i & @ @ @ j k . . . . . . . . . ",
". . . . . . . 2 3 4 5 . . . . . . . 0 @ @ @ @ @ @ @ l . . . h @ @ @ @ @ @ @ m n . . . . . . . . ",
". . . . . . . 2 3 4 5 . . . . . . . } $ c / . . o p q r . . h @ @ s t . u v @ w g . . . . . . . ",
". . . . . . . 2 3 4 5 . . . . . . . . . . . . . g x y 0 . . h @ z ~ . . . A B C A . . . . . . . ",
". . . . . . . 2 3 4 5 . . . . D } . . g E F @ @ ^ # G H . . h I J . . . . ~ K @ L . . . . . . . ",
". . . . . . . 2 3 4 5 . . . M ^ N . O P @ @ @ @ @ @ Q H . . | R c . . . . . [ @ 7 . . . . . . . ",
". . . . . . . 2 3 4 5 . . . 9 1 | . S @ T t . . U V y H . . h I W . . . . ~ K @ + . . . . . . . ",
". . . . . . . 2 3 4 5 . . . , 1 | X @ f . . . . Y Z j H . . h @ `  .. . . { ^ : ... . . . . . . ",
". . . . .  .L +.@.#.$.%.%.2 &.* | X *.p l =.-.B @ @ ;.>.,.{ '.@ @ : J $.).!.@ ~.. . . . . . . . ",
". . . . . K @ @ @ @ @ @ @ @ @ @ h . - @ @ @ @ @ @ @ @ @ & @ @ @ @ @ @ @ @ @ {. .. . . . . . . . ",
". . . . . ].@ @ @ @ @ @ @ @ @ @ ^.. . $ j @ # /.(.#.@ @ ' @ @ # ! _.!.@ G ].:.. . . . . . . . . ",
". . . . . . . . . . . . . . . . . . . . . . . . . . . . . . . . . . . . . . . . . . . . . . . . ",
". . . . . . . . . . . . . . . . . . . . . . . . . . . . . . . . . . . . . . . . . . . . . . . . ",
". . . . . . . . . . . . . . . . . . . . . . . . . . . . . . . . . . . . . . . . . . . . . . . . ",
". . . . . . . . . . . . . . . . g <.[.}.|.. . . . . . . . . . . $.1.. . . . . . . . . . . . . . ",
". . . . L @ @ @ k . . . . . . . ,.x @ 2.3.. . . . . . . . . . . ! @ . . . . . . . . . . . . . . ",
". . . . 4.5.) @ T . . . . . . . . . _ 6.3.. . . . . . . . . . . . . . . . . . . . . . . . . . . ",
". . . . . ..7.5.8.. . . . . L 9.0.a.[.b.c.d.e.f.z 8 g.{.. . h.@.d.R . . . . i.^ j.k.> l.|.. . . ",
". . . . . E m.% n.o.. . . p.& @ @ @ @ q.r.@ & @ @ s.@ @ _.. t.@ @ @ . . . . i @ R @ @ @ 1.g . . ",
". . . . |.| u.. v.3 . . w.Z x.,.. K @ y.. z.s.c w ; A.' B.. . . C.@ . . . X . s.B.a . T 1 D.. . ",
". . . . E.F.o.. D !.$ . G.H.t . . b 6.I.J.K.H.. 1.L.|.f.^ . . . a.@ . . . . . n.[ . . M.n.t . . ",
". . . . N.@ @ & & & f . i.O.P.. . . Q.x.J.K.R.. 1.S.} f.^ . . . a.@ . . . . . n.p.. . T.U.t . . ",
". . . J.V.@ @ @ @ @ R.E.l G 3.. . ~ S O.J.K.R.. 1.S.} f.^ . . . a.@ . . . . . n.p.. . T.U.t . . ",
". . . g Z c . . . . {.l =.p _ g . ! ; ] . z.B.. N I.. f.d.. . . }.@ . . . X . n.W.. . , n.. . . ",
". . . X.@ @ &.. . *.@ @ r.' @ @ @ @ * @ @ @ @ Y.Z.@ z.`.@  +y.@ @ & @ @ l . i & & c.= : @ .+. . ",
". . . v R m.++. . @+R @.#+. M.P $+E p.8.Z Z B.( ! ; J %+^ [._ .+Z Z Z > a.. i.&+*+d =+-+.+v . . ",
". . . . . . . . . . . . . . . . . . . . . . . . . . . . . . . . . . . . . . . . . . . . . . . . ",
". . . . . . . . . . . . . . . . . . . . . . . . . . . . . . . . . . . . . . . . . . . . . . . . ",
". . . . . . . . . . . . . . . . . . . . . . . . . . . . . . . . . . . . . . . . . . . . . . . . ",
". . . . . . . . . . . . . . . . . . . . . . . . . . . . . . . . . . . . . . . . . . . . . . . . ",
". . . . . . . . . . . . . . . . . . . . . . . . . . . . . . . . . . . . . . . . . . . . . . . . ",
". . . . . . . . . . . . . . . . . . . . . . . . . . . . . . . . . . . . . . . . . . . . . . . . ",
". . . . . . . . . . . . . . . . . . . . . . . . . . . . . . . . . . . . . . . . . . . . . . . . ",
". . . . . . . . . . . . . . . . . . . . . . . . . . . . . . . . . . . . . . . . . . . . . . . . ",
". . . . . . . . . . . . . . . . . . . . . . . . . . . . . . . . . . . . . . . . . . . . . . . . ",
". . . . . . . . . . . . . . . . . . . . . . . . . . . . . . . . . . . . . . . . . . . . . . . . ",
". . . . . . . . . . . . . . . . . . . . . . . . . . . . . . . . . . . . . . . . . . . . . . . . ",
". . . . . . . . . . . . . . . . . . . . . . . . . . . . . . . . . . . . . . . . . . . . . . . . "};
